<?xml version="1.0" encoding="UTF-8"?>
<svg id="topgrade" xmlns="http://www.w3.org/2000/svg" viewBox="0 0 1891 499">
  <defs>
    <style>
      .cls-1 {
        fill: #364c51;
      }

      .cls-1, .cls-2, .cls-3, .cls-4 {
        stroke-width: 0px;
      }

      .cls-2 {
        fill: #050156;
      }

      .cls-3 {
        fill: #f30;
      }

      .cls-4 {
        fill: #009;
      }
    </style>
  </defs>
  <g id="gear">
    <path class="cls-2" d="M935.44,485.15l-2.67-25.23c-.06-.54-.41-1.02-.91-1.23l-23.33-9.72c-.19-.08-.38-.12-.58-.12-.35,0-.69.12-.96.35l-20.34,16.96-18.42-18.77,16.79-20.19c.36-.43.45-1.02.23-1.53l-9.72-23.47c-.21-.51-.69-.87-1.25-.92l-25.04-2.33v-26.48l25.01-2.33c.55-.05,1.03-.41,1.25-.92l9.74-23.49c.21-.52.12-1.11-.23-1.54l-16.95-20.35,18.73-18.45,20.2,16.84c.27.23.62.35.96.35.19,0,.39-.04.58-.12l23.41-9.74c.51-.21.87-.69.92-1.25l2.32-25.07h26.47l2.33,25.08c.05.55.41,1.04.92,1.25l23.46,9.69c.18.08.38.11.57.11.34,0,.69-.12.96-.35l20.38-16.99,18.36,18.82-16.81,20.19c-.36.43-.45,1.02-.23,1.54l9.76,23.47c.21.51.69.87,1.25.92l25.02,2.33v26.48l-25.06,2.34c-.55.05-1.03.41-1.25.92l-9.7,23.46c-.21.51-.12,1.1.23,1.53l16.97,20.43-18.77,18.4-20.15-16.83c-.27-.23-.62-.35-.96-.35-.19,0-.39.04-.57.11l-23.7,9.81c-.53.22-.89.72-.92,1.29l-1.58,25.06h-26.71ZM948.46,364.67c-10.76,0-21.67,7.22-21.69,21.03,0,5.9,1.98,11.01,5.74,14.78,3.97,3.98,9.79,6.26,15.95,6.26,10.39,0,21.58-6.57,21.6-20.98.01-5.94-1.98-11.08-5.75-14.86-3.95-3.96-9.73-6.23-15.86-6.23Z"/>
    <path class="cls-1" d="M960.29,287.92l.95,10.24,1.25,13.48c.1,1.11.81,2.07,1.84,2.5l23.46,9.69c.37.15.76.23,1.14.23.69,0,1.37-.24,1.92-.7l11.22-9.35,8.09-6.75,16.44,16.86-6.78,8.15-9.16,11c-.71.86-.89,2.04-.46,3.07l9.76,23.47c.43,1.03,1.39,1.73,2.49,1.84l20.03,1.87,3.62.34v23.74l-8.67.81-15.03,1.4c-1.11.1-2.07.81-2.49,1.84l-6.4,15.5-3.29,7.97c-.42,1.03-.25,2.21.46,3.06l12,14.45,4.08,4.92-10.25,10.05-6.56,6.44-19.11-15.96c-.55-.46-1.23-.7-1.92-.7-.39,0-.78.07-1.15.23l-8.79,3.64-14.91,6.17c-1.06.44-1.77,1.44-1.85,2.58l-.34,5.38-1.15,18.28h-23.95l-2.36-22.29-.17-1.59c-.12-1.09-.82-2.03-1.83-2.45l-8.45-3.52-14.88-6.2c-.37-.16-.76-.23-1.15-.23-.69,0-1.37.24-1.92.7l-3.86,3.22-15.41,12.86-16.5-16.81,1.02-1.23,14.9-17.91c.71-.86.89-2.04.47-3.07l-9.72-23.47c-.43-1.03-1.39-1.74-2.49-1.84l-17.33-1.62-6.35-.59v-23.75l20.99-1.96,2.67-.25c1.11-.1,2.07-.81,2.49-1.84l9.74-23.49c.43-1.03.25-2.21-.47-3.07l-4.57-5.49-11.5-13.81.44-.43,16.34-16.1,17.96,14.97,1.2,1c.55.46,1.23.7,1.92.7.39,0,.78-.08,1.15-.23l8.03-3.34,15.38-6.4c1.03-.43,1.73-1.39,1.83-2.49l2.2-23.71h23.73M948.47,408.24c11.46,0,23.08-7.72,23.1-22.48.01-6.35-2.13-11.85-6.19-15.92-4.23-4.24-10.4-6.67-16.93-6.67-11.51,0-23.16,7.74-23.19,22.52,0,6.3,2.13,11.78,6.18,15.84,4.25,4.26,10.45,6.7,17.02,6.7M963.02,284.92h-29.2c-.88,9.48-1.69,18.26-2.45,26.43-8.12,3.38-15.65,6.51-23.41,9.74-6.51-5.43-13.27-11.06-21.25-17.71-6.97,6.87-13.79,13.58-20.68,20.37,6.93,8.32,12.57,15.09,17.84,21.42-3.35,8.08-6.48,15.61-9.74,23.49-8.28.77-17.04,1.59-26.38,2.46v29.22c9.49.89,18.27,1.7,26.4,2.46,3.36,8.12,6.48,15.64,9.72,23.47-5.43,6.53-11.06,13.29-17.66,21.23,6.93,7.07,13.64,13.89,20.34,20.72,8.33-6.95,15.1-12.6,21.4-17.85,8.13,3.39,15.64,6.52,23.33,9.72.92,8.66,1.87,17.62,2.82,26.57h29.47c.57-9.07,1.14-18.13,1.67-26.47,8.28-3.43,15.81-6.54,23.7-9.81,6.46,5.4,13.22,11.04,21.19,17.7,7.05-6.92,13.89-13.62,20.72-20.32-6.95-8.37-12.59-15.16-17.85-21.49,3.34-8.07,6.45-15.6,9.7-23.46,8.42-.79,17.2-1.61,26.42-2.47v-29.21c-9.53-.89-18.3-1.71-26.38-2.46-3.36-8.09-6.5-15.62-9.76-23.47,5.41-6.49,11.04-13.26,17.67-21.23-6.94-7.11-13.62-13.96-20.27-20.78-8.42,7.02-15.19,12.66-21.44,17.88-8.12-3.35-15.65-6.46-23.46-9.69-.78-8.43-1.6-17.21-2.45-26.44h0ZM948.47,405.24c-10.1,0-20.22-6.54-20.2-19.54.02-13.01,10.11-19.53,20.19-19.53s20.14,6.52,20.11,19.58c-.02,13.02-10.05,19.49-20.1,19.49h0Z"/>
  </g>
  <g id="stripes">
    <g>
      <polygon class="cls-3" points="116.55 116.5 84.45 73.82 470.19 73.82 470.19 116.5 116.55 116.5"/>
      <path class="cls-1" d="M468.69,75.32v39.68H117.3l-3.48-4.63-26.36-35.05h381.23M471.69,72.32H81.45c11.69,15.55,22.99,30.57,34.36,45.68h355.88v-45.68h0Z"/>
    </g>
    <g>
      <polygon class="cls-3" points="1420.59 116.59 1420.59 73.73 1806.3 73.73 1774.06 116.59 1420.59 116.59"/>
      <path class="cls-1" d="M1803.3,75.23l-12.18,16.19-17.8,23.66h-351.22v-39.86h381.21M1809.31,72.23h-390.22v45.86h355.72c11.33-15.07,22.63-30.09,34.5-45.86h0Z"/>
    </g>
    <g>
      <polygon class="cls-3" points="151.4 172.81 122.29 130.05 470.2 130.05 470.2 172.81 151.4 172.81"/>
      <path class="cls-1" d="M468.7,131.55v39.76H152.2l-6.39-9.39-20.68-30.37h343.58M471.7,128.55H119.45c10.64,15.62,20.95,30.76,31.16,45.76h321.1v-45.76h0Z"/>
    </g>
    <g>
      <polygon class="cls-3" points="1420.54 172.85 1420.54 129.93 1768.45 129.93 1739.27 172.85 1420.54 172.85"/>
      <path class="cls-1" d="M1765.61,131.43l-27.14,39.92h-316.43v-39.92h343.57M1771.28,128.43h-352.24v45.92h321.02c10.23-15.04,20.56-30.25,31.22-45.92h0Z"/>
    </g>
    <g>
      <polygon class="cls-3" points="184.29 225.51 158.01 182.6 470.04 182.6 470.04 225.51 184.29 225.51"/>
      <path class="cls-1" d="M468.54,184.1v39.91H185.13l-15.47-25.25-8.97-14.65h307.85M471.54,181.1H155.33c9.61,15.69,18.91,30.88,28.12,45.91h288.09v-45.91h0Z"/>
    </g>
    <g>
      <polygon class="cls-3" points="1420.55 225.56 1420.55 182.61 1732.66 182.61 1706.37 225.56 1420.55 225.56"/>
      <path class="cls-1" d="M1729.98,184.11l-6.77,11.06-17.68,28.89h-283.48v-39.94h307.93M1735.33,181.11h-316.28v45.94h288.16c9.23-15.07,18.5-30.23,28.13-45.94h0Z"/>
    </g>
  </g>
  <g>
    <g>
      <polygon class="cls-2" points="1006.35 291.11 980.31 248.13 1689.94 248.13 1663.61 291.11 1006.35 291.11"/>
      <path class="cls-1" d="M1687.26,249.63l-24.49,39.99h-655.57l-16.36-26.99-7.88-13h704.29M1692.62,246.63h-714.98c9.52,15.71,18.75,30.95,27.87,45.99h658.94c9.33-15.23,18.58-30.33,28.17-45.99h0Z"/>
    </g>
    <g>
      <polygon class="cls-2" points="228.12 293.17 201.78 250.18 911.32 250.18 885.3 293.17 228.12 293.17"/>
      <path class="cls-1" d="M908.65,251.68l-24.2,39.99H228.96l-3.49-5.69-21.01-34.29h704.19M913.98,248.68H199.11c9.54,15.58,18.78,30.65,28.17,45.99h658.87c9.21-15.23,18.4-30.41,27.83-45.99h0Z"/>
    </g>
  </g>
  <g>
    <g id="E">
      <path class="cls-2" d="M1328.32,240.51l-30.47-29.26V42.08c2.61-2.47,5.42-4.97,8.14-7.39,7.28-6.47,14.8-13.16,20.47-20.84h57.11c.43.06.86.13,1.29.21,1.08.18,2.19.37,3.35.38,10.78.08,21.63.09,30.83.09h124.31c98.07,0,196.14,0,294.21.01,1.34,0,2.73.08,4.07.16l-26.75,41.42h-473.85c-.83,0-1.5.67-1.5,1.5v47.78c0,.83.67,1.5,1.5,1.5h39.61v41.96h-39.41c-.83,0-1.5.67-1.5,1.5v47.02c0,.83.67,1.5,1.5,1.5h69.74v41.62h-82.67Z"/>
      <path class="cls-1" d="M1383.47,15.35c.38.06.76.12,1.15.19,1.14.19,2.31.39,3.59.4,10.73.08,21.61.09,30.84.09h124.96c97.86,0,195.71,0,293.57.01.47,0,.93,0,1.4.03l-7.16,11.09-17.73,27.46h-473.03c-1.66,0-3,1.34-3,3v47.78c0,1.66,1.34,3,3,3h38.11v38.96h-37.91c-1.66,0-3,1.34-3,3v47.02c0,1.66,1.34,3,3,3h68.24v38.62h-80.56l-11.02-10.58-18.55-17.82V42.73c2.44-2.29,4.98-4.55,7.64-6.92,7.14-6.35,14.52-12.91,20.22-20.46h56.26M1383.68,12.35h-57.98c-7.85,10.91-19.63,19.83-29.34,29.09v170.44c10.32,9.91,20.7,19.88,31.37,30.12h84.77v-44.62h-71.24v-47.02h40.91v-44.96h-41.11v-47.78h474.67c9.49-14.7,18.75-29.03,28-43.36v-.95c-2.05-.09-4.1-.26-6.14-.26-139.51-.01-279.02-.01-418.53-.01-10.27,0-20.55-.01-30.82-.09-1.52-.01-3.03-.38-4.55-.59h0Z"/>
    </g>
    <g id="D">
      <path class="cls-2" d="M1175.85,240.79c0-22.06.17-44.51.33-66.24.38-52.73.78-107.24-1.01-160.7h84.3l29.24,30.4v166.55l-29.24,29.98h-83.63ZM1218.81,48.26c-.83,0-1.5.67-1.5,1.5v147.49c0,.83.67,1.5,1.5,1.5h26.58c.83,0,1.5-.67,1.5-1.5V49.76c0-.83-.67-1.5-1.5-1.5h-26.58Z"/>
      <path class="cls-1" d="M1258.84,15.35l28.38,29.51v165.34l-15.15,15.54-13.22,13.56h-81.5c.01-21.57.17-43.49.33-64.72.38-52.24.77-106.22-.96-159.22h82.12M1218.81,200.26h26.58c1.66,0,3-1.34,3-3V49.76c0-1.66-1.34-3-3-3h-26.58c-1.66,0-3,1.34-3,3v147.49c0,1.66,1.34,3,3,3M1260.11,12.35h-86.5c2.61,76.46.73,153.43.73,229.94h85.76c10.02-10.28,20.05-20.56,30.1-30.87V43.65c-10.17-10.57-20.14-20.93-30.1-31.3h0ZM1218.81,197.26V49.76h26.58v147.49h-26.58Z"/>
    </g>
    <g id="A">
      <path class="cls-2" d="M1125.03,240.5v-90.27c0-.83-.67-1.5-1.5-1.5h-27.13c-.83,0-1.5.67-1.5,1.5v90.18h-41.7V43.25l27.91-29.4h56.69l28.44,29.8v196.86h-41.22ZM1096.21,54.82c-.83,0-1.5.67-1.5,1.5v47.89c0,.83.67,1.5,1.5,1.5h26.74c.83,0,1.5-.67,1.5-1.5v-47.89c0-.83-.67-1.5-1.5-1.5h-26.74Z"/>
      <path class="cls-1" d="M1081.76,15.35h55.41s17.61,18.46,17.61,18.46l9.96,10.44v194.76h-38.22v-88.77c0-1.66-1.34-3-3-3h-27.13c-1.66,0-3,1.34-3,3v88.68h-38.7V43.85l10.24-10.79,16.81-17.71M1096.21,107.22h26.74c1.66,0,3-1.34,3-3v-47.89c0-1.66-1.34-3-3-3h-26.74c-1.66,0-3,1.34-3,3v47.89c0,1.66,1.34,3,3,3M1080.47,12.35c-9.76,10.28-19.52,20.57-28.76,30.3v199.26h44.7v-91.68h27.13v91.77h44.22V43.05c-9.9-10.37-19.6-20.53-29.29-30.7-19.33,0-38.65,0-57.98,0h0ZM1096.21,104.22v-47.89h26.74v47.89h-26.74Z"/>
    </g>
    <g id="R">
      <path class="cls-2" d="M930.45,240.57c.01-23.35.29-47.15.55-70.17.59-51.41,1.2-104.55-1.04-156.54h85.23l3.04,3.23c8.14,8.67,16.56,17.62,25.61,25.78v14c0,10.66.01,21.32,0,31.99,0,2.67.09,5.25.18,7.74.42,11.52.75,20.63-8.14,28.81-.42.39-.58.98-.42,1.53.61,2.09,2.14,3.6,3.61,5.06,1.04,1.03,2.03,2.01,2.64,3.13,1.46,2.64,1.88,5.34,2.32,8.87.83,6.64.53,13.82.23,20.76-.14,3.34-.29,6.79-.3,10.09-.06,13.92-.02,28.07.01,41.75.02,7.99.04,15.98.04,23.97h-41.7v-90.18c0-.83-.67-1.5-1.5-1.5h-27.03c-.83,0-1.5.67-1.5,1.5v90.19h-41.83ZM973.45,54.86c-.83,0-1.5.67-1.5,1.5v48.07c0,.83.67,1.5,1.5,1.5h26.74c.83,0,1.5-.67,1.5-1.5v-48.07c0-.83-.67-1.5-1.5-1.5h-26.74Z"/>
      <path class="cls-1" d="M1014.54,15.35c.86.92,1.72,1.83,2.59,2.75,8.02,8.53,16.3,17.35,25.21,25.43,0,4.44,0,8.88,0,13.31,0,10.67,0,21.33,0,32,0,2.69.09,5.29.18,7.8.4,11.14.72,19.93-7.66,27.65-.84.77-1.17,1.96-.85,3.05.72,2.46,2.46,4.18,3.99,5.7.96.96,1.87,1.86,2.39,2.79,1.33,2.4,1.73,4.97,2.14,8.33.81,6.52.51,13.63.22,20.51-.14,3.35-.29,6.81-.3,10.15-.06,13.92-.02,28.06.01,41.74.02,7.5.04,14.99.04,22.49h-38.7v-88.68c0-1.66-1.34-3-3-3h-27.03c-1.66,0-3,1.34-3,3v88.69h-38.83c.02-22.86.29-46.13.55-68.66.59-50.91,1.19-103.53-.98-155.06h83.02M973.45,107.43h26.74c1.66,0,3-1.34,3-3v-48.07c0-1.66-1.34-3-3-3h-26.74c-1.66,0-3,1.34-3,3v48.07c0,1.66,1.34,3,3,3M1015.84,12.35h-87.45c3.38,76.26.56,153.37.56,229.72h44.83v-91.69h27.03v91.68h44.7c0-22.41-.14-44.81-.05-67.22.04-10.1,1.3-21.03.05-31.04-.41-3.33-.85-6.42-2.5-9.41-1.64-2.97-5.23-4.82-6.13-7.88,11.44-10.53,8.42-22.89,8.44-37.65.03-15.55,0-31.1,0-46.65-10.46-9.36-19.87-19.63-29.5-29.84h0ZM973.45,104.43v-48.07h26.74v48.07h-26.74Z"/>
    </g>
    <g id="G">
      <path class="cls-2" d="M838.99,240.83l-31.11-29.33V44.35l28.95-30.5h54.86l29.33,26.28v50.97h-41.42v-35.41c0-.83-.67-1.5-1.5-1.5h-26.92c-.83,0-1.5.67-1.5,1.5v143.31c0,.83.67,1.5,1.5,1.5h26.57c.83,0,1.5-.67,1.5-1.5v-51.49c0-.83-.67-1.5-1.5-1.5h-15.98v-39.5h58.94v104.84l-31.71,29.49h-50.02Z"/>
      <path class="cls-1" d="M837.48,15.35h53.64s28.4,25.45,28.4,25.45v48.8h-38.42v-33.91c0-1.66-1.34-3-3-3h-26.92c-1.66,0-3,1.34-3,3v143.31c0,1.66,1.34,3,3,3h26.57c1.66,0,3-1.34,3-3v-51.49c0-1.66-1.34-3-3-3h-14.48v-36.51h55.94v102.69l-18.3,17.03-12.49,11.62h-48.83l-17.86-16.84-12.34-11.64V44.95l10.68-11.25,17.41-18.34M836.19,12.35c-9.99,10.52-19.97,21.04-29.81,31.4v168.39c10.18,9.6,20.75,19.57,32.01,30.19h51.21c11.92-11.09,22.69-21.11,32.62-30.34v-106.99h-61.94v42.51h17.48v51.49h-26.57V55.69h26.92v36.91h44.42v-53.14c-8.79-7.88-19.52-17.49-30.25-27.11-18.69,0-37.39,0-56.08,0h0Z"/>
    </g>
  </g>
  <g>
    <g id="P">
      <path class="cls-4" d="M687.35,240.55c0-25.01-.04-50.02-.08-75.03-.02-12.67-.04-25.35-.06-38.02-.01-12.06-.35-24.49-.68-36.51-.69-25.51-1.4-51.87.84-77.14h84.48c2.5,2.63,5.01,5.38,7.45,8.04,6.69,7.31,13.61,14.87,21.33,21.19v12.76c0,15.71,0,31.96-.03,47.94v2.12c0,9.31,0,11.82-6.71,19.07-5.5,5.93-11.12,11.94-16.56,17.74l-5.53,5.91h-41.32c-.83,0-1.5.67-1.5,1.5v90.42h-41.64ZM730.37,54.8c-.83,0-1.5.67-1.5,1.5v48.1c0,.83.67,1.5,1.5,1.5h26.63c.83,0,1.5-.67,1.5-1.5v-48.1c0-.83-.67-1.5-1.5-1.5h-26.63Z"/>
      <path class="cls-1" d="M771.22,15.35c2.34,2.48,4.7,5.05,6.98,7.55,6.57,7.18,13.35,14.6,20.93,20.89v11.92c0,15.76,0,32.05-.03,48.07,0,.75,0,1.45,0,2.13,0,9.29,0,11.23-6.31,18.05-5.49,5.92-11.1,11.92-16.53,17.72-1.7,1.82-3.4,3.63-5.11,5.45h-40.67c-1.66,0-3,1.34-3,3v88.92h-38.64c0-24.5-.04-49.34-.08-73.4-.02-12.72-.04-25.43-.06-38.15-.01-12.08-.35-24.52-.68-36.55-.68-25-1.38-50.83.72-75.6h82.46M730.37,107.4h26.63c1.66,0,3-1.34,3-3v-48.1c0-1.66-1.34-3-3-3h-26.63c-1.66,0-3,1.34-3,3v48.1c0,1.66,1.34,3,3,3M772.51,12.35h-86.5c-3.52,37.76-.34,77.21-.3,115.15.05,38.18.14,76.36.14,114.54h44.64v-91.92h41.97c7.52-8.04,15.06-16.06,22.54-24.13,7.62-8.23,7.08-10.94,7.11-22.21.05-20.47.03-40.95.03-61.42-10.85-8.76-20-19.94-29.63-30.01h0ZM730.37,104.4v-48.1h26.63v48.1h-26.63Z"/>
    </g>
    <g id="O">
      <path class="cls-4" d="M595.91,240.94l-31.43-29.39V43.14l28.08-29.29h56.68c8.18,8.95,17.28,18.05,28.53,28.56v169.65l-30.55,28.87h-51.3ZM607.85,53.53c-.83,0-1.5.67-1.5,1.5v142.77c0,.83.67,1.5,1.5,1.5h26.66c.83,0,1.5-.67,1.5-1.5V55.03c0-.83-.67-1.5-1.5-1.5h-26.66Z"/>
      <path class="cls-1" d="M648.57,15.35c7.98,8.69,16.83,17.55,27.69,27.71v168.36l-4.96,4.69-24.68,23.33h-50.11l-30.53-28.54V43.75l27.22-28.39h55.38M607.85,200.81h26.66c1.66,0,3-1.34,3-3V55.03c0-1.66-1.34-3-3-3h-26.66c-1.66,0-3,1.34-3,3v142.77c0,1.66,1.34,3,3,3M649.9,12.35h-57.98c-9.83,10.25-19.65,20.5-28.94,30.19v169.66c10.4,9.73,21.02,19.65,32.34,30.23h52.49c11.28-10.66,21.63-20.44,31.46-29.73V41.76c-10.2-9.51-19.97-19.1-29.37-29.41h0ZM607.85,197.81V55.03h26.66v142.77h-26.66Z"/>
    </g>
    <g id="T">
      <path class="cls-4" d="M479.52,239.95V57.59c0-.83-.67-1.5-1.5-1.5H75.38L49.94,13.85h506.26v41.44h-33.62c-.83,0-1.5.67-1.5,1.5v183.16h-41.56Z"/>
      <path class="cls-1" d="M554.7,15.35v38.44h-32.12c-1.66,0-3,1.34-3,3v181.66h-38.56V57.59c0-1.66-1.34-3-3-3H76.22l-9.38-15.58-14.25-23.67h502.11M557.7,12.35H47.28c9.09,15.09,18.17,30.17,27.25,45.24h403.49v183.86h44.56V56.79h35.12V12.35h0Z"/>
    </g>
  </g>
</svg>